# xmcd
# 
# Track frame offsets:
#     150
#     22123
#     43593
#     63375
#     83498
#     109085
#     131715
#     151168
#     172778
#     193645
# 
# Disc length: 2840
# 
# Revision: 7
# Processed by: cddbd v1.5.2PL0 Copyright (c) Steve Scherf et al.
# Submitted via: fre:ac v1.0.17
# 
DISCID=770b160a
DTITLE=夏川りみ - 沖縄の風
DYEAR=2004
DGENRE=JPop
TTITLE0=海の彼方
TTITLE1=童神〜ヤマトグチ〜
TTITLE2=恋ぬ初み
TTITLE3=満天の星
TTITLE4=イラヨイ月夜浜
TTITLE5=島々清しゃ
TTITLE6=ファムレウタ（子守唄）
TTITLE7=黄金の花
TTITLE8=芭蕉布
TTITLE9=涙そうそう
EXTD=YEAR: 2004
EXTT0=
EXTT1=
EXTT2=
EXTT3=
EXTT4=
EXTT5=
EXTT6=
EXTT7=
EXTT8=
EXTT9=
PLAYORDER=
